PathFileType	4	(X/Y/Z)	C:/Users/opensim2020/Desktop/walking_exp_matlab/subject01_walking06_straight_04.trc																																																																																																																															
DataRate	CameraRate	NumFrames	NumMarkers	Units	OrigDataRate	OrigDataStartFrame	OrigNumFrames																																																																																																																											
100	100	4	43	mm	100	2975	212																																																																																																																											
Frame#	Time	LFHD			RFHD			LBHD			RBHD			C7			T10			CLAV			STRN			RBAK			LSHO			LUPA			LELB			LFRM			LWRA			LWRB			LFIN			RSHO			RUPA			RELB			RFRM			RWRA			RWRB			RFIN			LASI			RASI			LPSI			RPSI			LTHI			LKNE			LTIB			LANK			LHEE			LTOE			RTHI			RKNE			RTIB			RANK			RHEE			RTOE			*39			*40			*41			*42		
		X1	Y1	Z1	X2	Y2	Z2	X3	Y3	Z3	X4	Y4	Z4	X5	Y5	Z5	X6	Y6	Z6	X7	Y7	Z7	X8	Y8	Z8	X9	Y9	Z9	X10	Y10	Z10	X11	Y11	Z11	X12	Y12	Z12	X13	Y13	Z13	X14	Y14	Z14	X15	Y15	Z15	X16	Y16	Z16	X17	Y17	Z17	X18	Y18	Z18	X19	Y19	Z19	X20	Y20	Z20	X21	Y21	Z21	X22	Y22	Z22	X23	Y23	Z23	X24	Y24	Z24	X25	Y25	Z25	X26	Y26	Z26	X27	Y27	Z27	X28	Y28	Z28	X29	Y29	Z29	X30	Y30	Z30	X31	Y31	Z31	X32	Y32	Z32	X33	Y33	Z33	X34	Y34	Z34	X35	Y35	Z35	X36	Y36	Z36	X37	Y37	Z37	X38	Y38	Z38	X39	Y39	Z39	X40	Y40	Z40	X41	Y41	Z41	X42	Y42	Z42	X43	Y43	Z43
																																																																																																																																		
186	1.85	656.62891	1648.33044	1050.32849	694.40161	1647.36206	1159.13306	539.8017	1613.00293	1084.02246	577.53186	1611.98877	1199.18762	497.38583	1411.82495	1115.79382	468.0401	1117.05518	1116.55078	644.34869	1345.23218	1101.6803	687.63489	1193.38208	1084.11499	452.49301	1212.98523	1187.35645	569.26221	1380.83533	947.55701	563.37079	1204.51306	849.50531	586.23566	1053.27246	828.78986	679.76318	981.96332	808.63757	807.39124	932.73773	835.10736	768.17023	897.40833	806.64996	848.17767	871.60492	800.22363	591.77692	1367.21472	1259.7688	510.07297	1172.08667	1351.57397	491.26511	1050.44214	1348.82104	488.7962	930.96399	1378.30493	538.45691	797.8924	1359.23047	494.82678	809.23846	1397.82166	513.03918	725.02429	1395.96106	627.4328	917.71716	976.93036	665.62939	916.41479	1192.51721	453.74213	927.26343	1067.73401	479.06516	922.01373	1209.28162	522.85559	593.3158	934.85651	477.58331	462.73938	951.29608	361.26752	311.06647	949.28131	251.91309	119.30763	1003.79626	200.18706	112.00779	1056.50977	372.33456	32.49745	1004.1828	696.60065	594.71179	1267.76709	753.02106	450.71368	1243.67859	752.33936	275.56793	1260.46558	800.58093	72.03434	1228.79749	762.16974	24.23128	1181.0929	947.30896	61.39369	1221.09363	681.15405	1682.75659	1140.20789	-1972.89612	1023.96704	3102.43042	-2013.09949	1022.26648	3138.15112	NaN	NaN	NaN
187	1.86	666.40125	1648.56506	1052.96509	704.57977	1647.41736	1161.69006	549.91199	1612.60596	1087.48865	587.87573	1611.4967	1202.00977	507.82971	1411.20813	1117.85071	479.95428	1115.97498	1118.39612	654.91077	1344.89441	1103.91736	698.84888	1193.47522	1085.97778	464.15906	1211.52087	1189.57703	579.1969	1380.46094	950.0293	572.78998	1204.05811	851.76337	594.13208	1052.68115	830.18945	687.74182	981.00665	809.90619	814.95563	930.83875	836.67401	775.70447	895.97461	807.65564	856.10089	869.8299	801.80273	603.01306	1366.4856	1262.34937	521.81659	1170.90051	1353.90076	503.19949	1049.16382	1351.20581	500.74188	929.59882	1380.50928	549.93964	796.6015	1360.73877	506.87161	807.97968	1399.61621	525.00549	723.91766	1397.70789	639.867	916.95929	978.29626	677.74646	915.97522	1193.86328	465.77832	926.62231	1068.99683	491.66223	921.40747	1211.349	535.3443	592.17444	935.98773	489.74576	461.77289	951.86768	369.99457	312.8425	949.03967	255.58818	123.60886	1002.37952	204.03098	118.35062	1055.06494	372.5834	32.36354	1004.01929	708.30835	595.05939	1266.78979	763.38831	450.10867	1244.09741	761.03442	275.95718	1258.34521	807.45343	72.30306	1229.15369	765.11633	26.49506	1182.57605	953.27643	56.14426	1218.21643	690.91467	1682.59692	1142.96191	-1972.99756	1023.90063	3102.50391	-2013.10193	1022.37268	3138.32349	NaN	NaN	NaN
188	1.87	676.34698	1649.37878	1055.75549	714.83868	1648.01196	1164.19434	559.90967	1613.1189	1090.01453	598.41693	1611.70459	1204.86011	518.44	1411.20117	1120.65198	491.80264	1115.67773	1119.95349	665.75299	1345.53491	1106.21899	709.85681	1193.97046	1087.96545	475.76947	1210.83777	1191.78027	589.08136	1380.35559	952.15601	582.04614	1203.82251	853.92578	602.76581	1052.34155	831.91986	695.23621	979.93604	811.24615	821.9986	928.6969	838.18823	782.61829	894.38483	808.58484	862.4165	867.57202	803.18732	614.16736	1366.06848	1264.95349	533.92438	1169.84949	1356.40649	515.45221	1048.05591	1353.65869	513.19159	928.31976	1382.90112	561.96661	795.39728	1362.12659	519.00977	806.67407	1401.2406	537.349	722.96179	1399.3324	652.33691	916.39917	979.92535	689.83014	915.88336	1195.24036	477.87595	926.20831	1069.99255	504.16431	921.36096	1212.6875	548.6958	591.16187	937.5047	502.80362	460.92471	952.39465	379.36472	314.93826	948.90594	260.01007	128.51466	1001.23804	208.96909	125.45577	1053.78589	373.28201	32.51717	1003.81708	719.18073	596.14111	1267.79126	774.73401	452.01385	1244.44995	771.62103	278.28052	1260.08362	811.50983	71.54758	1229.67529	766.69965	27.78147	1183.74487	956.20367	48.9808	1214.95251	700.64728	1683.04443	1145.62366	-1972.69763	1024.59412	3103.22144	-2012.67029	1022.07349	3140.09741	NaN	NaN	NaN
189	1.88	686.26477	1650.02917	1058.37109	725.32501	1648.6825	1166.5094	570.09204	1613.9259	1093.04309	609.13568	1612.39893	1207.69434	529.26172	1411.71448	1123.35803	503.55194	1115.84705	1121.37708	676.10907	1346.2821	1108.32056	721.13477	1194.72327	1090.11072	487.13498	1210.75073	1194.20691	599.3631	1380.68372	954.18787	591.02832	1203.97034	856.25653	610.43494	1052.49194	833.7243	702.22467	978.88239	812.6358	828.43475	926.2868	839.71198	788.9433	892.68011	809.62592	868.53461	865.11615	804.67657	625.22595	1365.99255	1267.43604	546.20935	1169.11377	1359.00195	527.97632	1047.24084	1356.1106	525.73407	927.41309	1384.76636	574.64899	794.73291	1363.5426	531.73724	805.63873	1402.86096	550.1825	722.3548	1400.9519	664.9408	916.133	981.54303	701.85773	916.44421	1196.64465	490.06848	926.01105	1070.55701	515.71906	922.1463	1213.64209	562.88019	590.46582	938.70331	516.89282	460.30945	952.77441	389.84659	317.56091	948.54993	266.12204	133.85997	1000.0603	214.94505	133.34381	1052.72144	373.91711	32.5623	1003.69281	728.73511	597.02063	1270.67554	786.34222	453.84637	1244.61584	782.44043	279.90881	1261.85352	813.58905	71.48061	1230.40442	767.32245	29.41741	1185.4082	957.93262	42.75832	1212.97461	711.0506	1683.98242	1148.23254	-1972.98584	1024.18176	3102.13428	-2012.58057	1022.01605	3140.34253	NaN	NaN	NaN
